PathFileType	4	(X/Y/Z)	RBDS03\RBDS03runT45.trc
DataRate	CameraRate	NumFrames	NumMarkers	Units	OrigDataRate	OrigDataStartFrame	OrigNumFrames
150.000000	150.000000	4	33	mm	150.000000	3375	4500
Frame#	Time	L.ASIS			L.Heel.Bottom			L.Heel.Lateral			L.Heel.Top			L.Iliac.Crest			L.MT1			L.MT5			L.PSIS			L.Shank.Bottom.Lateral			L.Shank.Bottom.Medial			L.Shank.Top.Lateral			L.Shank.Top.Medial			L.Thigh.Bottom.Lateral			L.Thigh.Bottom.Medial			L.Thigh.Top.Lateral			L.Thigh.Top.Medial			R.ASIS			R.ASY			R.Heel.Bottom			R.Heel.Lateral			R.Heel.Top			R.Iliac.Crest			R.MT1			R.MT5			R.PSIS			R.Shank.Bottom.Lateral			R.Shank.Bottom.Medial			R.Shank.Top.Lateral			R.Shank.Top.Medial			R.Thigh.Bottom.Lateral			R.Thigh.Bottom.Medial			R.Thigh.Top.Lateral			R.Thigh.Top.Medial			
		X1	Y1	Z1	X2	Y2	Z2	X3	Y3	Z3	X4	Y4	Z4	X5	Y5	Z5	X6	Y6	Z6	X7	Y7	Z7	X8	Y8	Z8	X9	Y9	Z9	X10	Y10	Z10	X11	Y11	Z11	X12	Y12	Z12	X13	Y13	Z13	X14	Y14	Z14	X15	Y15	Z15	X16	Y16	Z16	X17	Y17	Z17	X18	Y18	Z18	X19	Y19	Z19	X20	Y20	Z20	X21	Y21	Z21	X22	Y22	Z22	X23	Y23	Z23	X24	Y24	Z24	X25	Y25	Z25	X26	Y26	Z26	X27	Y27	Z27	X28	Y28	Z28	X29	Y29	Z29	X30	Y30	Z30	X31	Y31	Z31	X32	Y32	Z32	X33	Y33	Z33	

3376	22.5	2440.085059267191	972.9569460660798	952.6542238636456	1947.319146119502	682.1113239684355	1009.062887017506	1941.12487915032	649.5446610518128	959.7095443281534	1986.170629569808	649.3460686355087	1005.088092000541	2387.096736293348	1039.220523853988	893.5756320121723	1864.766347201985	467.6412068754844	1036.404827252025	1863.192010678521	512.5693943553525	934.473198588886	2266.43572934805	1010.738732741547	987.2930815540141	2041.035538413987	567.784462135832	941.6936622026302	2054.69659309598	605.3028321561519	979.0781709017407	2118.645102355388	554.6133332247571	926.2503017053957	2133.164227862035	591.6203260846283	962.6035786655257	2386.562831187951	529.7131390811551	902.5252317183918	2325.67873238563	535.0713865148235	941.6681995083549	2380.257310621452	637.8800852555688	882.7794219089666	2315.99408563038	639.6274580205493	910.8440804695307	2412.276695010661	1002.321265795664	1160.671582374624	-1086330458.958734	228678366.6877129	-640459121.8514106	2308.643554403488	37.34676629727931	1037.299470795835	2340.523530777436	57.64595621209536	1086.722720328226	2323.252644390083	84.53902993201579	1036.041778765504	2344.375141968861	1059.240497844722	1196.774027815726	2526.756210938389	43.39402192633162	1022.203497638445	2492.034452663064	38.42126613674017	1132.879199770702	2253.147023995678	1019.718639299052	1069.242470769112	2401.614101962741	150.9131742731348	1106.872946840399	2366.821330044504	171.2604454618307	1073.540534657932	2414.769264216752	229.5463128321563	1137.089885379991	2379.913978260728	246.8464094778538	1100.059407331232	2477.869704609043	599.934755207056	1200.118604073153	2422.964589301752	574.1196494280099	1159.926700045687	2419.800393641861	692.2769354663959	1219.53346648317	2368.347433564784	667.8462981030963	1181.634642418748	
3377	22.50666666666667	2436.249996528491	969.0228174968047	952.5740361277446	1961.798362561424	676.7558926036694	1003.683937505062	1958.510356322749	642.6515557061566	955.4045615166798	2001.954614572165	645.4540842482385	1001.916310893161	2381.599542246234	1034.117065058848	893.3404325966092	1886.354642554602	460.3607789121609	1035.325034322176	1886.576032253859	502.1953110009204	931.8651559618926	2262.914605635656	1007.603534572109	987.9047031161233	2060.110923096241	562.0550179627752	940.1689098263341	2073.616893708759	600.8415164828831	976.0939913723414	2137.749410095768	549.0628237527438	924.6675471616122	2152.147551250137	587.3489748023551	959.7159039886176	2404.158936351438	528.8080701439218	902.047437463934	2342.644488334088	531.2976824861895	940.2953552408636	2392.610411793125	636.4089030800365	881.9769785796175	2327.691054426795	634.790046013924	908.7457716440663	2409.509505856178	998.2344987702891	1160.645760734009	-1087299214.713915	228885124.7140367	-641029415.4874516	2279.167175235535	38.46488763839287	1036.874682127537	2311.036839931918	59.31679715310608	1086.073892147262	2294.001455897681	85.57019055596322	1035.010743114277	2342.04185728089	1052.591942062919	1197.354465543917	2496.669160019649	43.96005115011964	1022.329562807025	2462.013651956251	39.88753444996591	1132.565917886047	2250.15806480356	1016.683610243732	1069.437851554462	2376.85281300859	151.6861229353405	1105.667214615581	2342.595700422791	173.7338325849567	1072.82194417602	2394.148900180361	229.4763139972481	1136.063786992787	2359.515246281818	248.5546595408609	1099.601690375692	2470.288753005151	595.1370829402648	1199.937049087475	2415.241032698935	570.4201372867798	1159.19543498964	2413.461078733452	688.2381024582444	1219.420169649661	2361.928385262933	664.7433135892472	1181.050599066139	
3378	22.51333333333334	2432.701039314351	966.0177548389838	952.4477663890378	1975.048940950672	669.6993264445294	998.6737988841433	1974.870694030786	634.2342594337204	951.4531760596398	2016.591593619516	640.1927832329975	999.0275180460403	2375.928300767937	1030.111949622084	893.3750046649832	1908.297842660849	451.1946731855384	1034.567552867736	1910.010046552233	490.1151848160334	929.7267385284442	2259.670377068162	1005.320482024183	988.6887537945234	2078.609025727171	555.5581319366529	938.9285452473151	2091.594828733842	595.7582016384375	973.277951938863	2156.375541286791	543.3804780391071	923.3609772389362	2170.247583750774	583.1227076647111	956.9324753636915	2421.833136001403	529.8274706045686	901.7824046841802	2359.994900846273	529.3511001083189	939.3818679462503	2404.955419933463	636.5827305399416	881.2990883187858	2339.739871219066	631.6002064153868	907.1523750914681	2406.948277508918	994.7928239622867	1160.748466052093	-1088268546.221606	229092007.2997702	-641600047.5645891	2249.476209783513	39.22320054073128	1036.542978220175	2281.274895020249	60.58606784097808	1085.591125977564	2264.30920957555	86.27640935255913	1034.251825931901	2339.632034096435	1046.802985204768	1197.99037980704	2466.279492959175	45.00291173873472	1022.571748720366	2431.768956264441	41.399654838573	1132.299953294426	2247.48059888002	1014.416607040895	1069.811462436453	2350.900561818436	152.2916845168637	1104.675187139015	2317.344828458619	175.8432557435735	1072.165069383506	2371.997854512982	229.1307884468218	1135.054242488908	2337.707930690444	249.7826978300214	1099.048015496647	2460.768526374584	590.1124352136426	1199.358554603707	2405.366889799234	566.8168613663235	1158.201161892244	2405.790596070052	684.2961346191998	1218.916426369277	2353.998159327932	662.0331473535254	1180.187824354923	
3379	22.52	2429.558969519553	964.0115158746803	952.3107493886961	1987.093825781991	660.8471446389937	994.2687779859192	1990.159516437191	624.3078768954859	948.0227390362417	2030.056533260698	633.4697823495811	996.5619411989428	2370.395981090088	1027.343676521909	893.6546122302669	1930.58819226232	440.214628658031	1034.100386536021	1933.419166422728	476.5566029972346	928.0835728732438	2256.817784873635	1003.939532251275	989.5853686577227	2096.453838538854	548.3576981256074	938.029817828586	2108.526730730327	590.0619129969141	970.7437346719032	2174.418657183592	537.6518961252713	922.3661925168124	2187.33542237874	578.9628261084346	954.3390839381733	2439.324037779314	532.7417176705277	901.7338826304618	2377.437212040055	529.249949965559	938.8997494111995	2417.113664566907	638.3778661421841	880.7539449728898	2351.948999733316	630.1085426915527	906.0769188443174	2404.679297718511	992.0666445051098	1161.012129881485	-1089238453.652841	229299014.4824133	-642171018.1832174	2219.514617674115	39.73184901355367	1036.270012673044	2251.232452231456	61.52037787891042	1085.233870350708	2234.224146662869	86.77348233329636	1033.71705084927	2337.209424779041	1042.084400613632	1198.637857223416	2435.678264337753	46.18058973389714	1022.858722205481	2401.327593452423	42.7354629315551	1132.045200630496	2245.200550227809	1012.962857718067	1070.343157594639	2323.85137634165	152.7380769392014	1103.849245996103	2291.135156176412	177.5989475626132	1071.528131728033	2348.409359543481	228.5603813763636	1134.044730780563	2314.566069585422	250.5863609313772	1098.37578173346	2449.451867548742	585.0321206551647	1198.438833903712	2393.470855954353	563.4402920005042	1157.067144382732	2396.921895097184	680.5846138385048	1218.082756520829	2344.672408048054	659.8189248844164	1179.160140101426	
